<svg width="117" height="38" viewBox="0 0 117 38" fill="none" xmlns="http://www.w3.org/2000/svg">
<path d="M0 22.623C0 21.627 0.216797 20.7188 0.650391 19.8984C1.08398 19.0781 1.73438 18.375 2.60156 17.7891C3.46875 17.1914 4.54688 16.7344 5.83594 16.418C7.13672 16.0898 8.64844 15.9258 10.3711 15.9258C11.6484 15.9258 12.9902 16.0195 14.3965 16.207C15.8145 16.3945 17.2734 16.6816 18.7734 17.0684C18.7148 16.4121 18.5156 15.8086 18.1758 15.2578C17.8359 14.6953 17.3613 14.2148 16.752 13.8164C16.1543 13.4062 15.4277 13.0898 14.5723 12.8672C13.7285 12.6445 12.7676 12.5332 11.6895 12.5332C11.1035 12.5332 10.459 12.5684 9.75586 12.6387C9.05273 12.709 8.32617 12.8145 7.57617 12.9551C6.82617 13.0957 6.08203 13.2715 5.34375 13.4824C4.61719 13.6934 3.9375 13.9453 3.30469 14.2383L1.72266 9.9668C2.50781 9.68555 3.3457 9.42773 4.23633 9.19336C5.13867 8.95898 6.05859 8.75977 6.99609 8.5957C7.93359 8.41992 8.87109 8.28516 9.80859 8.19141C10.7461 8.09766 11.6543 8.05078 12.5332 8.05078C16.4121 8.05078 19.2949 9.04102 21.1816 11.0215C23.0684 13.002 24.0117 16.0371 24.0117 20.127V29.1621H18.8086V27.2109C18.2695 27.5273 17.6777 27.8262 17.0332 28.1074C16.4004 28.3887 15.709 28.6348 14.959 28.8457C14.209 29.0566 13.4004 29.2207 12.5332 29.3379C11.6777 29.4668 10.7695 29.5312 9.80859 29.5312C8.19141 29.5312 6.76758 29.3555 5.53711 29.0039C4.31836 28.6523 3.29883 28.166 2.47852 27.5449C1.6582 26.9238 1.03711 26.1973 0.615234 25.3652C0.205078 24.5215 0 23.6074 0 22.623ZM5.48438 22.4473C5.48438 22.7871 5.57227 23.1152 5.74805 23.4316C5.92383 23.7363 6.20508 24.0117 6.5918 24.2578C6.97852 24.4922 7.4707 24.6855 8.06836 24.8379C8.67773 24.9785 9.41016 25.0488 10.2656 25.0488C11.1797 25.0488 12.0645 24.9668 12.9199 24.8027C13.7754 24.6387 14.5723 24.4219 15.3105 24.1523C16.0488 23.8828 16.7168 23.5723 17.3145 23.2207C17.9121 22.8691 18.4102 22.5059 18.8086 22.1309V21.2168C18.0117 20.9941 17.2207 20.8066 16.4355 20.6543C15.6621 20.502 14.918 20.3848 14.2031 20.3027C13.5 20.209 12.832 20.1445 12.1992 20.1094C11.5781 20.0742 11.0332 20.0566 10.5645 20.0566C9.5918 20.0566 8.7832 20.1211 8.13867 20.25C7.49414 20.3789 6.97266 20.5547 6.57422 20.7773C6.17578 20.9883 5.89453 21.2402 5.73047 21.5332C5.56641 21.8262 5.48438 22.1309 5.48438 22.4473Z" fill="#1E2EBF"/>
<path d="M25.2324 8.41992H30.4355V11.4082C31.584 10.5527 32.7969 9.81445 34.0742 9.19336C35.3516 8.57227 36.623 8.09766 37.8887 7.76953L39.418 12.5332C37.4141 12.7324 35.6504 13.1836 34.127 13.8867C32.6152 14.5781 31.3848 15.5566 30.4355 16.8223V29.1621H25.2324V8.41992Z" fill="#1E2EBF"/>
<path d="M45.623 37.6348H40.4199V8.41992H45.623V10.3711C46.0801 10.0547 46.6191 9.75586 47.2402 9.47461C47.8613 9.19336 48.5293 8.94727 49.2441 8.73633C49.959 8.52539 50.6973 8.36133 51.459 8.24414C52.2207 8.11523 52.9824 8.05078 53.7441 8.05078C55.5019 8.05078 57.1133 8.30859 58.5781 8.82422C60.0547 9.33984 61.3203 10.0664 62.375 11.0039C63.4297 11.9414 64.25 13.0664 64.8359 14.3789C65.4336 15.6797 65.7324 17.1211 65.7324 18.7031C65.7324 20.3555 65.4219 21.8496 64.8008 23.1855C64.1797 24.5098 63.3184 25.6465 62.2168 26.5957C61.127 27.5332 59.8262 28.2598 58.3144 28.7754C56.8144 29.2793 55.1855 29.5312 53.4277 29.5312C52.6777 29.5312 51.9336 29.4844 51.1953 29.3906C50.4687 29.2969 49.7656 29.168 49.0859 29.0039C48.418 28.8398 47.7852 28.6465 47.1875 28.4238C46.6016 28.1895 46.0801 27.9375 45.623 27.668V37.6348ZM45.623 22.6406C46.1504 23.0625 46.707 23.4199 47.293 23.7129C47.8789 24.0059 48.4766 24.2461 49.0859 24.4336C49.6953 24.6211 50.3105 24.7617 50.9316 24.8555C51.5527 24.9375 52.1562 24.9785 52.7422 24.9785C53.9375 24.9785 54.998 24.8203 55.9238 24.5039C56.8613 24.1758 57.6465 23.7305 58.2793 23.168C58.9238 22.6055 59.416 21.9434 59.7559 21.1816C60.0957 20.4199 60.2656 19.5938 60.2656 18.7031C60.2656 17.8711 60.0957 17.0859 59.7559 16.3477C59.4277 15.6094 58.9473 14.9648 58.3144 14.4141C57.6934 13.8516 56.9375 13.4121 56.0469 13.0957C55.168 12.7676 54.1777 12.6035 53.0762 12.6035C52.373 12.6035 51.6699 12.6738 50.9668 12.8145C50.2637 12.9434 49.584 13.1309 48.9277 13.377C48.2832 13.623 47.6738 13.9219 47.0996 14.2734C46.5371 14.625 46.0449 15.0176 45.623 15.4512V22.6406Z" fill="#1E2EBF"/>
<path d="M66.2207 22.623C66.2207 21.627 66.4375 20.7188 66.8711 19.8984C67.3047 19.0781 67.9551 18.375 68.8223 17.7891C69.6895 17.1914 70.7676 16.7344 72.0566 16.418C73.3574 16.0898 74.8691 15.9258 76.5918 15.9258C77.8691 15.9258 79.2109 16.0195 80.6172 16.207C82.0352 16.3945 83.4941 16.6816 84.9941 17.0684C84.9355 16.4121 84.7363 15.8086 84.3965 15.2578C84.0566 14.6953 83.582 14.2148 82.9727 13.8164C82.375 13.4062 81.6484 13.0898 80.793 12.8672C79.9492 12.6445 78.9883 12.5332 77.9102 12.5332C77.3242 12.5332 76.6797 12.5684 75.9766 12.6387C75.2734 12.709 74.5469 12.8145 73.7969 12.9551C73.0469 13.0957 72.3027 13.2715 71.5645 13.4824C70.8379 13.6934 70.1582 13.9453 69.5254 14.2383L67.9434 9.9668C68.7285 9.68555 69.5664 9.42773 70.457 9.19336C71.3594 8.95898 72.2793 8.75977 73.2168 8.5957C74.1543 8.41992 75.0918 8.28516 76.0293 8.19141C76.9668 8.09766 77.875 8.05078 78.7539 8.05078C82.6328 8.05078 85.5156 9.04102 87.4023 11.0215C89.2891 13.002 90.2324 16.0371 90.2324 20.127V29.1621H85.0293V27.2109C84.4902 27.5273 83.8984 27.8262 83.2539 28.1074C82.6211 28.3887 81.9297 28.6348 81.1797 28.8457C80.4297 29.0566 79.6211 29.2207 78.7539 29.3379C77.8984 29.4668 76.9902 29.5312 76.0293 29.5312C74.4121 29.5312 72.9883 29.3555 71.7578 29.0039C70.5391 28.6523 69.5195 28.166 68.6992 27.5449C67.8789 26.9238 67.2578 26.1973 66.8359 25.3652C66.4258 24.5215 66.2207 23.6074 66.2207 22.623ZM71.7051 22.4473C71.7051 22.7871 71.793 23.1152 71.9688 23.4316C72.1445 23.7363 72.4258 24.0117 72.8125 24.2578C73.1992 24.4922 73.6914 24.6855 74.2891 24.8379C74.8984 24.9785 75.6309 25.0488 76.4863 25.0488C77.4004 25.0488 78.2852 24.9668 79.1406 24.8027C79.9961 24.6387 80.793 24.4219 81.5312 24.1523C82.2695 23.8828 82.9375 23.5723 83.5352 23.2207C84.1328 22.8691 84.6309 22.5059 85.0293 22.1309V21.2168C84.2324 20.9941 83.4414 20.8066 82.6562 20.6543C81.8828 20.502 81.1387 20.3848 80.4238 20.3027C79.7207 20.209 79.0527 20.1445 78.4199 20.1094C77.7988 20.0742 77.2539 20.0566 76.7852 20.0566C75.8125 20.0566 75.0039 20.1211 74.3594 20.25C73.7148 20.3789 73.1934 20.5547 72.7949 20.7773C72.3965 20.9883 72.1152 21.2402 71.9512 21.5332C71.7871 21.8262 71.7051 22.1309 71.7051 22.4473Z" fill="#1E2EBF"/>
<path d="M91.4199 18.8789C91.4199 17.2266 91.7305 15.7383 92.3516 14.4141C92.9727 13.0781 93.8281 11.9414 94.918 11.0039C96.0195 10.0547 97.3203 9.32812 98.8203 8.82422C100.332 8.30859 101.967 8.05078 103.725 8.05078C104.475 8.05078 105.213 8.09766 105.939 8.19141C106.678 8.28516 107.381 8.41406 108.049 8.57812C108.729 8.74219 109.361 8.94141 109.947 9.17578C110.545 9.39844 111.072 9.64453 111.529 9.91406V0H116.732V29.1621H111.529V27.2109C111.072 27.5273 110.533 27.8262 109.912 28.1074C109.291 28.3887 108.623 28.6348 107.908 28.8457C107.193 29.0566 106.449 29.2207 105.676 29.3379C104.914 29.4668 104.158 29.5312 103.408 29.5312C101.65 29.5312 100.033 29.2734 98.5566 28.7578C97.0918 28.2422 95.832 27.5156 94.7773 26.5781C93.7227 25.6406 92.8965 24.5215 92.2988 23.2207C91.7129 21.9082 91.4199 20.4609 91.4199 18.8789ZM96.8867 18.8789C96.8867 19.7109 97.0508 20.4961 97.3789 21.2344C97.7188 21.9727 98.1992 22.623 98.8203 23.1855C99.4531 23.7363 100.209 24.1758 101.088 24.5039C101.979 24.8203 102.975 24.9785 104.076 24.9785C104.779 24.9785 105.482 24.9141 106.186 24.7852C106.889 24.6445 107.562 24.4512 108.207 24.2051C108.863 23.959 109.473 23.6602 110.035 23.3086C110.609 22.957 111.107 22.5645 111.529 22.1309V14.9414C111.002 14.5195 110.445 14.1621 109.859 13.8691C109.273 13.5762 108.676 13.3359 108.066 13.1484C107.457 12.9609 106.842 12.8262 106.221 12.7441C105.6 12.6504 104.996 12.6035 104.41 12.6035C103.215 12.6035 102.148 12.7676 101.211 13.0957C100.285 13.4121 99.5 13.8516 98.8555 14.4141C98.2227 14.9766 97.7363 15.6387 97.3965 16.4004C97.0566 17.1621 96.8867 17.9883 96.8867 18.8789Z" fill="#1E2EBF"/>
</svg>
